<svg width="25" height="24" viewBox="0 0 25 24" fill="none" xmlns="http://www.w3.org/2000/svg">
<path d="M10.5629 1.00026L7.75037 7.75026L12.2504 22.3753M12.2504 22.3753L16.7504 7.75026L13.9379 1.00026M12.2504 22.3753C12.6072 22.3753 12.9584 22.2904 13.276 22.1276C13.5935 21.9649 13.8678 21.7289 14.0762 21.4393L23.065 9.08001C23.3502 8.69081 23.5028 8.22023 23.5001 7.73772C23.4975 7.25521 23.3398 6.78632 23.0504 6.40026L19.6754 1.90026C19.4658 1.62082 19.194 1.39401 18.8816 1.2378C18.5692 1.08159 18.2247 1.00026 17.8754 1.00026H6.62537C6.27541 1.0003 5.93027 1.08198 5.61741 1.2388C5.30455 1.39563 5.03258 1.62327 4.82312 1.90363L1.45037 6.40026C1.16075 6.7862 1.00287 7.25502 1.00004 7.73753C0.997203 8.22005 1.14956 8.69069 1.43462 9.08001L10.4234 21.4393C10.6318 21.7289 10.9061 21.9649 11.2237 22.1276C11.5412 22.2904 11.8935 22.3753 12.2504 22.3753ZM1.00037 7.75026H23.5004" stroke="white" stroke-width="2" stroke-linecap="round" stroke-linejoin="round"/>
</svg>
